<svg width="34" height="33" viewBox="0 0 34 33" fill="none" xmlns="http://www.w3.org/2000/svg">
<path id="Vector" d="M16.6667 32.5C14.3611 32.5 12.1944 32.0734 10.1667 31.2203C8.13889 30.3672 6.375 29.2094 4.875 27.7469C3.375 26.2844 2.1875 24.5646 1.3125 22.5875C0.4375 20.6104 0 18.4979 0 16.25C0 14.0021 0.4375 11.8896 1.3125 9.9125C2.1875 7.93542 3.375 6.21562 4.875 4.75312C6.375 3.29062 8.13889 2.13281 10.1667 1.27969C12.1944 0.426562 14.3611 0 16.6667 0C18.9722 0 21.1389 0.426562 23.1667 1.27969C25.1944 2.13281 26.9583 3.29062 28.4583 4.75312C29.9583 6.21562 31.1458 7.93542 32.0208 9.9125C32.8958 11.8896 33.3333 14.0021 33.3333 16.25C33.3333 18.4979 32.8958 20.6104 32.0208 22.5875C31.1458 24.5646 29.9583 26.2844 28.4583 27.7469C26.9583 29.2094 25.1944 30.3672 23.1667 31.2203C21.1389 32.0734 18.9722 32.5 16.6667 32.5ZM16.6667 29.25C20.3889 29.25 23.5417 27.9906 26.125 25.4719C28.7083 22.9531 30 19.8792 30 16.25C30 12.6208 28.7083 9.54687 26.125 7.02812C23.5417 4.50937 20.3889 3.25 16.6667 3.25C12.9444 3.25 9.79167 4.50937 7.20833 7.02812C4.625 9.54687 3.33333 12.6208 3.33333 16.25C3.33333 19.8792 4.625 22.9531 7.20833 25.4719C9.79167 27.9906 12.9444 29.25 16.6667 29.25ZM10 22.75V17.7531L19.2083 8.81562C19.4583 8.57187 19.7361 8.39583 20.0417 8.2875C20.3472 8.17917 20.6528 8.125 20.9583 8.125C21.2917 8.125 21.6111 8.18594 21.9167 8.30781C22.2222 8.42969 22.5 8.6125 22.75 8.85625L24.2917 10.3594C24.5139 10.6031 24.6875 10.874 24.8125 11.1719C24.9375 11.4698 25 11.7677 25 12.0656C25 12.3635 24.9444 12.6682 24.8333 12.9797C24.7222 13.2911 24.5417 13.5687 24.2917 13.8125L15.125 22.75H10ZM12.5 20.3125H14.0833L19.125 15.3562L18.375 14.5844L17.5833 13.8531L12.5 18.7687V20.3125ZM18.375 14.5844L17.5833 13.8531L19.125 15.3562L18.375 14.5844Z" fill="#E353FA"/>
</svg>
